<?xml version="1.0" encoding="utf-8"?>
<!-- Generator: Adobe Illustrator 24.1.1, SVG Export Plug-In . SVG Version: 6.00 Build 0)  -->
<svg version="1.1" id="Capa_1" xmlns="http://www.w3.org/2000/svg" xmlns:xlink="http://www.w3.org/1999/xlink" x="0px" y="0px"
	 viewBox="0 0 40 30.49" style="enable-background:new 0 0 40 30.49;" xml:space="preserve">
<style type="text/css">
	.st0{fill:#AAAAAA;}
</style>
<g>
	<path class="st0" d="M33.87,2.53C31.23,1.34,28.48,0.47,25.63,0c-0.36,0.65-0.76,1.48-1.05,2.17c-3.04-0.47-6.11-0.47-9.15,0
		C15.1,1.41,14.74,0.69,14.34,0C11.48,0.47,8.7,1.34,6.09,2.57C0.89,10.34-0.53,17.9,0.16,25.39c3.07,2.28,6.47,4.02,10.13,5.1
		c0.83-1.12,1.56-2.28,2.17-3.51c-1.19-0.43-2.31-0.98-3.4-1.63c0.29-0.22,0.54-0.43,0.83-0.65c6.4,3.04,13.85,3.04,20.26,0
		c0.29,0.22,0.54,0.43,0.83,0.65c-1.09,0.65-2.24,1.19-3.44,1.63c0.61,1.23,1.34,2.39,2.17,3.51c3.65-1.12,7.09-2.82,10.13-5.1
		C40.64,16.71,38.4,9.19,33.87,2.53 M13.33,20.76c-1.99,0-3.58-1.81-3.58-4.02s1.59-4.05,3.58-4.05c2.03,0,3.62,1.81,3.62,4.05
		C16.91,18.95,15.35,20.76,13.33,20.76 M26.64,20.76c-1.99,0-3.58-1.81-3.58-4.02s1.59-4.05,3.58-4.05c2.03,0,3.62,1.81,3.58,4.05
		C30.18,18.99,28.63,20.76,26.64,20.76"/>
</g>
</svg>
