<?xml version="1.0" encoding="utf-8"?>
<!-- Generator: Adobe Illustrator 24.1.1, SVG Export Plug-In . SVG Version: 6.00 Build 0)  -->
<svg version="1.1" id="Layer_2" xmlns="http://www.w3.org/2000/svg" xmlns:xlink="http://www.w3.org/1999/xlink" x="0px" y="0px"
	 viewBox="0 0 40 40" style="enable-background:new 0 0 40 40;" xml:space="preserve">
<style type="text/css">
	.st0{fill:#B5B2B2;}
</style>
<g>
	<g>
		<path class="st0" d="M11.25,25.98l8.24,4.86l0.51,0.3l0.51-0.3l8.24-4.86L20,38.28L11.25,25.98 M32.29,22.73L20,29.98L7.71,22.73
			L20,40v0l0,0l0,0v0L32.29,22.73L32.29,22.73z"/>
	</g>
	<g>
		<path class="st0" d="M20,1.94l10.92,18.11L20,26.51L9.08,20.05L20,1.94 M20,0L20,0L20,0L20,0L7.71,20.4L20,27.67v0l0,0l0,0v0
			l12.29-7.27L20,0L20,0L20,0z"/>
	</g>
</g>
</svg>
