<?xml version="1.0" encoding="utf-8"?>
<!-- Generator: Adobe Illustrator 24.1.1, SVG Export Plug-In . SVG Version: 6.00 Build 0)  -->
<svg version="1.1" id="Calque_1" xmlns="http://www.w3.org/2000/svg" xmlns:xlink="http://www.w3.org/1999/xlink" x="0px" y="0px"
	 viewBox="0 0 64 64" style="enable-background:new 0 0 64 64;" xml:space="preserve">
<style type="text/css">
	.st0{fill:#FFFFFF;}
</style>
<g>
	<path id="Fill-1" class="st0" d="M28.8,40.9c1,0,1.9,0.8,1.9,1.9c0,1-0.8,1.9-1.9,1.9c-1,0-1.9-0.8-1.9-1.9S27.8,40.9,28.8,40.9
		 M58.2,29.3c-1,0-1.9-0.8-1.9-1.9c0-1,0.8-1.9,1.9-1.9c1,0,1.9,0.8,1.9,1.9C60.1,28.4,59.2,29.3,58.2,29.3 M58.2,21.6
		c-3.2,0-5.8,2.6-5.8,5.8c0,0.6,0.1,1.2,0.3,1.8L33.6,39.4c-1.1-1.6-2.9-2.5-4.8-2.5c-2.2,0-4.2,1.3-5.2,3.2l-17.2-9
		c-1.8-1-3.2-3.9-3-6.7C3.5,23,4,21.9,4.7,21.5c0.5-0.3,1-0.2,1.7,0.1l0.1,0.1c4.6,2.4,19.5,10.2,20.1,10.5c1,0.4,1.5,0.6,3.2-0.2
		l30.8-16c0.5-0.2,1-0.6,1-1.3c0-0.9-0.9-1.3-0.9-1.3c-1.8-0.8-4.5-2.1-7.1-3.3C48,7.5,41.6,4.5,38.8,3c-2.4-1.3-4.4-0.2-4.7,0
		l-0.7,0.3C20.7,9.7,3.9,18,2.9,18.6c-1.7,1-2.8,3.1-2.9,5.7c-0.2,4.1,1.9,8.4,4.9,9.9l18.2,9.4c0.4,2.8,2.9,5,5.7,5
		c3.2,0,5.7-2.5,5.8-5.7l20-10.8c1,0.8,2.3,1.2,3.6,1.2c3.2,0,5.8-2.6,5.8-5.8C64,24.2,61.4,21.6,58.2,21.6"/>
</g>
</svg>
