<?xml version="1.0" encoding="utf-8"?>
<!-- Generator: Adobe Illustrator 24.1.1, SVG Export Plug-In . SVG Version: 6.00 Build 0)  -->
<svg version="1.1" id="Capa_1" xmlns="http://www.w3.org/2000/svg" xmlns:xlink="http://www.w3.org/1999/xlink" x="0px" y="0px"
	 viewBox="0 0 360 290" style="enable-background:new 0 0 360 290;" xml:space="preserve">
<style type="text/css">
	.st0{fill:#F5EFE8;}
</style>
<g>
	<path class="st0" d="M121.85,183.63l0.45-18.37c0.14-0.55,0.14-1.14,0.03-1.65l0.83-34.47c0.1-0.34,0.17-0.72,0.17-1.1
		c0-0.31-0.03-0.62-0.1-0.89l0.21-8.57c0.28-11.21,8.87-20.71,20.02-22.08c2.13-0.28,3.65-2.2,3.37-4.33
		c-0.28-2.13-2.2-3.65-4.33-3.41c-14.93,1.86-26.49,14.58-26.83,29.65l-0.17,5.74c-9.46,0.17-17.1,7.88-17.1,17.37v2
		c0,10.56,6.47,19.85,16.06,23.63l-0.38,16.3c-0.24,10.29,3.44,20.12,10.32,27.73c0.76,0.86,1.82,1.27,2.89,1.27
		c0.93,0,1.86-0.34,2.61-1c1.58-1.44,1.72-3.92,0.28-5.5C124.6,199.83,121.64,191.92,121.85,183.63 M106.16,143.52v-2
		c0-5.13,4.06-9.32,9.12-9.56l-0.62,26.59C109.5,155.46,106.16,149.82,106.16,143.52"/>
	<path class="st0" d="M244.41,124.15l-0.14-5.74c-0.34-15.07-11.9-27.79-26.83-29.65c-2.13-0.28-4.09,1.27-4.33,3.41
		c-0.28,2.13,1.24,4.09,3.41,4.33c11.15,1.38,19.74,10.87,20.02,22.08l1.07,45.03c-0.1,0.52-0.1,1.1,0.03,1.65l0.45,18.37
		c0.28,11.42-5.61,22.22-15.38,28.17l-15.41,9.39c-16.86,10.25-37.8,10.25-54.62,0l-7.67-4.68c-1.82-1.14-4.23-0.55-5.33,1.31
		c-1.14,1.82-0.55,4.23,1.31,5.37l7.67,4.68c9.67,5.88,20.54,8.84,31.37,8.84s21.71-2.96,31.37-8.84l15.41-9.39
		c12.14-7.4,19.47-20.81,19.13-35.02l-0.38-16.3c9.6-3.78,16.06-13.07,16.06-23.63v-2C261.51,132.03,253.87,124.33,244.41,124.15
		 M253.73,143.52c0,6.29-3.34,11.94-8.5,15.07L244.62,132c5.06,0.24,9.12,4.44,9.12,9.56V143.52z"/>
	<path class="st0" d="M153.15,183.56c-0.41,1.93-0.65,3.89-0.65,5.88c0,15.14,12.31,27.42,27.42,27.42
		c15.14,0,27.42-12.31,27.42-27.42c0-2-0.21-3.96-0.62-5.88c11.28-3.51,19.33-14.07,19.33-26.21c0-2.68-0.38-5.33-1.14-7.84
		c-0.62-2.06-2.79-3.23-4.85-2.61c-2.06,0.62-3.23,2.79-2.61,4.85c0.55,1.82,0.83,3.72,0.83,5.64c0,9.8-7.33,18.16-16.99,19.47
		c-1.2,0.17-2.24,0.86-2.86,1.89c-0.58,1.03-0.69,2.3-0.24,3.41c0.93,2.34,1.41,4.82,1.41,7.33c0,10.84-8.81,19.64-19.64,19.64
		s-19.64-8.84-19.64-19.68c0-2.51,0.48-4.99,1.41-7.33c0.45-1.1,0.34-2.37-0.24-3.41c-0.62-1.03-1.65-1.75-2.86-1.89
		c-9.7-1.31-16.99-9.67-16.99-19.47c0-10.84,8.81-19.64,19.64-19.64c6.16,0,11.83,2.82,15.58,7.71c0.72,0.96,1.89,1.51,3.1,1.51
		c1.2,0,2.34-0.55,3.1-1.51c3.75-4.88,9.43-7.71,15.58-7.71c2.89,0,5.64,0.58,8.22,1.79c1.96,0.89,4.27,0.03,5.16-1.89
		c0.89-1.96,0.03-4.27-1.89-5.16c-3.61-1.65-7.46-2.51-11.49-2.51c-7.05,0-13.66,2.61-18.68,7.36c-5.02-4.71-11.63-7.36-18.68-7.36
		c-15.14,0-27.42,12.31-27.42,27.42C133.85,169.49,141.9,180.05,153.15,183.56"/>
	<path class="st0" d="M191.4,159.65c0,4.3,2.44,7.77,5.43,7.77s5.43-3.47,5.43-7.77s-2.44-7.77-5.43-7.77
		C193.85,151.85,191.4,155.35,191.4,159.65"/>
	<path class="st0" d="M157.62,159.65c0,4.3,2.44,7.77,5.43,7.77s5.43-3.47,5.43-7.77s-2.44-7.77-5.43-7.77
		C160.07,151.85,157.62,155.35,157.62,159.65"/>
	<path class="st0" d="M203.1,91.24c0.07-0.14,0.14-0.28,0.17-0.41c0-0.03,0.03-0.03,0.03-0.07c0.03-0.17,0.07-0.34,0.1-0.52
		c0-0.03,0-0.1,0-0.14c0-0.14,0-0.28,0-0.38c0-0.03,0-0.1,0-0.14c0-0.17-0.03-0.34-0.1-0.52c0-0.03-0.03-0.07-0.03-0.07
		c-0.03-0.14-0.1-0.28-0.17-0.41c0-0.03-0.03-0.03-0.03-0.07s-0.03-0.03-0.03-0.07c-0.03-0.03-0.03-0.07-0.07-0.1l-20.5-33.61
		c-0.48-0.89-1.48-1.44-2.51-1.44s-2.03,0.55-2.55,1.44l-20.5,33.61c0,0.03-0.03,0.07-0.03,0.1s-0.03,0.03-0.03,0.07
		c0,0.03,0,0.03-0.03,0.07c-0.07,0.14-0.14,0.28-0.17,0.41c0,0.03-0.03,0.07-0.03,0.1c-0.03,0.17-0.07,0.34-0.1,0.52
		c0,0.03,0,0.1,0,0.14c0,0.14,0,0.24,0,0.38c0,0.03,0,0.1,0,0.14c0.03,0.17,0.07,0.34,0.1,0.52c0,0.03,0,0.03,0.03,0.07
		c0.03,0.14,0.1,0.28,0.17,0.41c0.03,0.03,0.07,0.1,0.07,0.14c0.03,0.03,0.03,0.1,0.07,0.14l20.5,31.13
		c0.55,0.83,1.48,1.34,2.51,1.34c1,0,1.96-0.52,2.51-1.34l20.5-31.13c0.03-0.03,0.03-0.1,0.07-0.14
		C203.03,91.34,203.06,91.3,203.1,91.24 M179.95,62.03l16.27,26.66l-16.27,8.46l-16.27-8.46L179.95,62.03z M179.95,115.59
		l-11.66-17.72l10.29,5.37c0.45,0.21,0.89,0.34,1.38,0.34c0.48,0,0.96-0.1,1.38-0.34l10.29-5.37L179.95,115.59z"/>
</g>
</svg>
