<?xml version="1.0" encoding="utf-8"?>
<!-- Generator: Adobe Illustrator 24.1.1, SVG Export Plug-In . SVG Version: 6.00 Build 0)  -->
<svg version="1.1" id="Capa_1" xmlns="http://www.w3.org/2000/svg" xmlns:xlink="http://www.w3.org/1999/xlink" x="0px" y="0px"
	 viewBox="0 0 174.73 53.31" style="enable-background:new 0 0 174.73 53.31;" xml:space="preserve">
<style type="text/css">
	.st0{clip-path:url(#SVGID_2_);fill:#F5EFE8;}
</style>
<g>
	<defs>
		<rect id="SVGID_1_" y="0" width="174.73" height="53.31"/>
	</defs>
	<clipPath id="SVGID_2_">
		<use xlink:href="#SVGID_1_"  style="overflow:visible;"/>
	</clipPath>
	<path class="st0" d="M6.82,37.89l0.13-5.34c0.04-0.16,0.04-0.33,0.01-0.48L7.2,22.05c0.03-0.1,0.05-0.21,0.05-0.32
		c0-0.09-0.01-0.18-0.03-0.26l0.06-2.49c0.08-3.26,2.58-6.02,5.82-6.42c0.62-0.08,1.06-0.64,0.98-1.26
		c-0.08-0.62-0.64-1.06-1.26-0.99c-4.34,0.54-7.7,4.24-7.8,8.62L4.97,20.6C2.22,20.65,0,22.89,0,25.65v0.58
		c0,3.07,1.88,5.77,4.67,6.87l-0.11,4.74c-0.07,2.99,1,5.85,3,8.06c0.22,0.25,0.53,0.37,0.84,0.37c0.27,0,0.54-0.1,0.76-0.29
		c0.46-0.42,0.5-1.14,0.08-1.6C7.62,42.6,6.76,40.3,6.82,37.89 M2.26,26.23v-0.58c0-1.49,1.18-2.71,2.65-2.78L4.73,30.6
		C3.23,29.7,2.26,28.06,2.26,26.23"/>
	<path class="st0" d="M42.45,20.6l-0.04-1.67c-0.1-4.38-3.46-8.08-7.8-8.62c-0.62-0.08-1.19,0.37-1.26,0.99
		c-0.08,0.62,0.36,1.19,0.99,1.26c3.24,0.4,5.74,3.16,5.82,6.42l0.31,13.09c-0.03,0.15-0.03,0.32,0.01,0.48l0.13,5.34
		c0.08,3.32-1.63,6.46-4.47,8.19l-4.48,2.73c-4.9,2.98-10.99,2.98-15.88,0l-2.23-1.36c-0.53-0.33-1.23-0.16-1.55,0.38
		c-0.33,0.53-0.16,1.23,0.38,1.56l2.23,1.36c2.81,1.71,5.97,2.57,9.12,2.57c3.15,0,6.31-0.86,9.12-2.57l4.48-2.73
		c3.53-2.15,5.66-6.05,5.56-10.18l-0.11-4.74c2.79-1.1,4.67-3.8,4.67-6.87v-0.58C47.42,22.89,45.2,20.65,42.45,20.6 M45.16,26.23
		c0,1.83-0.97,3.47-2.47,4.38l-0.18-7.73c1.47,0.07,2.65,1.29,2.65,2.78V26.23z"/>
	<path class="st0" d="M15.92,37.87c-0.12,0.56-0.19,1.13-0.19,1.71c0,4.4,3.58,7.97,7.97,7.97c4.4,0,7.97-3.58,7.97-7.97
		c0-0.58-0.06-1.15-0.18-1.71c3.28-1.02,5.62-4.09,5.62-7.62c0-0.78-0.11-1.55-0.33-2.28c-0.18-0.6-0.81-0.94-1.41-0.76
		c-0.6,0.18-0.94,0.81-0.76,1.41c0.16,0.53,0.24,1.08,0.24,1.64c0,2.85-2.13,5.28-4.94,5.66c-0.35,0.05-0.65,0.25-0.83,0.55
		c-0.17,0.3-0.2,0.67-0.07,0.99c0.27,0.68,0.41,1.4,0.41,2.13c0,3.15-2.56,5.71-5.71,5.71S18,42.73,18,39.58
		c0-0.73,0.14-1.45,0.41-2.13c0.13-0.32,0.1-0.69-0.07-0.99c-0.18-0.3-0.48-0.51-0.83-0.55c-2.82-0.38-4.94-2.81-4.94-5.66
		c0-3.15,2.56-5.71,5.71-5.71c1.79,0,3.44,0.82,4.53,2.24c0.21,0.28,0.55,0.44,0.9,0.44c0.35,0,0.68-0.16,0.9-0.44
		c1.09-1.42,2.74-2.24,4.53-2.24c0.84,0,1.64,0.17,2.39,0.52c0.57,0.26,1.24,0.01,1.5-0.55c0.26-0.57,0.01-1.24-0.55-1.5
		c-1.05-0.48-2.17-0.73-3.34-0.73c-2.05,0-3.97,0.76-5.43,2.14c-1.46-1.37-3.38-2.14-5.43-2.14c-4.4,0-7.97,3.58-7.97,7.97
		C10.31,33.78,12.65,36.85,15.92,37.87"/>
	<path class="st0" d="M27.04,30.92c0,1.25,0.71,2.26,1.58,2.26c0.87,0,1.58-1.01,1.58-2.26c0-1.25-0.71-2.26-1.58-2.26
		C27.75,28.65,27.04,29.67,27.04,30.92"/>
	<path class="st0" d="M17.22,30.92c0,1.25,0.71,2.26,1.58,2.26c0.87,0,1.58-1.01,1.58-2.26c0-1.25-0.71-2.26-1.58-2.26
		C17.93,28.65,17.22,29.67,17.22,30.92"/>
	<path class="st0" d="M30.44,11.03c0.02-0.04,0.04-0.08,0.05-0.12c0-0.01,0.01-0.01,0.01-0.02c0.01-0.05,0.02-0.1,0.03-0.15
		c0-0.01,0-0.03,0-0.04c0-0.04,0-0.08,0-0.11c0-0.01,0-0.03,0-0.04c0-0.05-0.01-0.1-0.03-0.15c0-0.01-0.01-0.02-0.01-0.02
		c-0.01-0.04-0.03-0.08-0.05-0.12c0-0.01-0.01-0.01-0.01-0.02c0-0.01-0.01-0.01-0.01-0.02c-0.01-0.01-0.01-0.02-0.02-0.03
		l-5.96-9.77C24.3,0.16,24.01,0,23.71,0c-0.3,0-0.59,0.16-0.74,0.42l-5.96,9.77C17.01,10.2,17,10.21,17,10.22
		c0,0.01-0.01,0.01-0.01,0.02s0,0.01-0.01,0.02c-0.02,0.04-0.04,0.08-0.05,0.12c0,0.01-0.01,0.02-0.01,0.03
		c-0.01,0.05-0.02,0.1-0.03,0.15c0,0.01,0,0.03,0,0.04c0,0.04,0,0.07,0,0.11c0,0.01,0,0.03,0,0.04c0.01,0.05,0.02,0.1,0.03,0.15
		c0,0.01,0,0.01,0.01,0.02c0.01,0.04,0.03,0.08,0.05,0.12c0.01,0.01,0.02,0.03,0.02,0.04c0.01,0.01,0.01,0.03,0.02,0.04l5.96,9.05
		c0.16,0.24,0.43,0.39,0.73,0.39c0.29,0,0.57-0.15,0.73-0.39l5.96-9.05c0.01-0.01,0.01-0.03,0.02-0.04
		C30.42,11.06,30.43,11.05,30.44,11.03 M23.71,2.54l4.73,7.75l-4.73,2.46l-4.73-2.46L23.71,2.54z M23.71,18.11l-3.39-5.15l2.99,1.56
		c0.13,0.06,0.26,0.1,0.4,0.1c0.14,0,0.28-0.03,0.4-0.1l2.99-1.56L23.71,18.11z"/>
	<path class="st0" d="M68.84,37.23c0,0.52-0.16,0.69-0.69,0.71l-0.97,0.02c-0.55,0-0.73-0.16-0.73-0.67l0.04-3.01h-8.17l0.02,3.01
		c0,0.5-0.18,0.69-0.71,0.69h-0.95c-0.53,0-0.71-0.18-0.71-0.71v-7.77c0-0.52,0.12-0.85,0.5-1.23l2.78-2.85
		c0.38-0.38,0.69-0.52,1.21-0.52h3.85c0.52,0,0.83,0.12,1.19,0.49l2.81,2.86c0.38,0.38,0.51,0.71,0.51,1.23V37.23z M63.97,27.12
		h-3.13l-2.52,2.48v2.64h8.17l0.02-2.62L63.97,27.12z"/>
	<path class="st0" d="M76.53,37.23c0,0.53-0.16,0.69-0.69,0.71l-0.95,0.02c-0.54,0-0.73-0.16-0.73-0.69V25.73
		c0-0.53,0.18-0.71,0.71-0.71h8.09c0.52,0,0.83,0.12,1.19,0.48l1.63,1.61c0.36,0.36,0.48,0.67,0.48,1.19v2.28
		c0,0.52-0.12,0.83-0.5,1.21l-1.6,1.59c-0.38,0.38-0.69,0.5-1.19,0.5l-6.46-0.02V37.23z M76.53,31.77h6.07l1.23-1.23v-2.08
		l-1.25-1.25l-6.09-0.02L76.53,31.77z"/>
	<path class="st0" d="M90.81,25.73c0-0.52,0.18-0.71,0.71-0.71h9.38c0.53,0,0.71,0.18,0.71,0.71v0.83c0,0.52-0.18,0.71-0.69,0.71
		l-7.77-0.04v3.05l7.02-0.02c0.5,0,0.69,0.18,0.69,0.71v0.91c0,0.52-0.18,0.71-0.69,0.71l-7.02-0.04v3.21l7.85-0.02
		c0.51,0,0.69,0.18,0.69,0.71v0.81c0,0.53-0.18,0.71-0.71,0.71h-9.47c-0.52,0-0.71-0.18-0.71-0.71V25.73z"/>
	<path class="st0" d="M106.72,25.73c0-0.53,0.18-0.71,0.71-0.71h9.3c0.53,0,0.85,0.12,1.23,0.51l1.27,1.25
		c0.28,0.28,0.46,0.71,0.46,1.11l-0.02,1.17c0,0.5-0.14,0.81-0.52,1.19l-1.21,1.19l1.33,1.33c0.38,0.38,0.5,0.69,0.5,1.19l0.02,1.09
		c0,0.46-0.18,0.81-0.5,1.13L118,37.46c-0.36,0.36-0.67,0.48-1.19,0.48h-9.38c-0.53,0-0.71-0.18-0.71-0.71V25.73z M117.27,28.23
		l-1.09-1.13h-7.04v3.33h6.78l1.39-1.43L117.27,28.23z M116.28,35.86l1.21-1.21l0.02-0.54l-1.59-1.59h-6.78v3.35H116.28z"/>
	<path class="st0" d="M137.49,37.23c0,0.52-0.16,0.69-0.69,0.71l-0.97,0.02c-0.54,0-0.73-0.16-0.73-0.67l0.04-3.01h-8.17L127,37.3
		c0,0.5-0.18,0.69-0.71,0.69h-0.95c-0.53,0-0.71-0.18-0.71-0.71v-7.77c0-0.52,0.12-0.85,0.5-1.23l2.79-2.85
		c0.38-0.38,0.69-0.52,1.21-0.52h3.85c0.52,0,0.83,0.12,1.19,0.49l2.81,2.86c0.38,0.38,0.5,0.71,0.5,1.23V37.23z M132.63,27.12
		h-3.13l-2.52,2.48v2.64h8.17l0.02-2.62L132.63,27.12z"/>
	<path class="st0" d="M154.41,25.67c0-0.5,0.18-0.69,0.71-0.69h0.87c0.53,0,0.71,0.18,0.71,0.71v10.96c0,0.53-0.12,0.83-0.51,1.15
		l-0.75,0.65c-0.4,0.34-0.67,0.32-1.03-0.06l-9.3-9.95v8.84c0,0.53-0.18,0.71-0.71,0.71h-0.87c-0.52,0-0.71-0.18-0.71-0.71V25.69
		c0-0.52,0.18-0.71,0.69-0.71l1.11,0.02c0.51,0,0.81,0.14,1.17,0.52l8.64,9.3L154.41,25.67z"/>
	<path class="st0" d="M172.25,25.67c-0.02-0.5,0.16-0.69,0.69-0.69h1.09c0.53,0,0.71,0.18,0.71,0.69l-0.02,1.25
		c0,0.5-0.12,0.81-0.5,1.15l-3.71,3.37l3.69,3.47c0.38,0.36,0.52,0.67,0.52,1.17l0.02,1.21c0,0.5-0.18,0.69-0.71,0.69h-1.07
		c-0.52,0-0.71-0.18-0.69-0.69l0.04-1.01l-3.91-3.69h-3.73l0.02,4.7c0,0.5-0.18,0.69-0.71,0.69H163c-0.52,0-0.71-0.18-0.71-0.71
		V25.69c0-0.52,0.18-0.71,0.71-0.71h0.97c0.52,0,0.71,0.18,0.71,0.69l-0.02,4.68h3.75l3.88-3.57L172.25,25.67z"/>
</g>
</svg>
