<?xml version="1.0" encoding="utf-8"?>
<!-- Generator: Adobe Illustrator 24.1.1, SVG Export Plug-In . SVG Version: 6.00 Build 0)  -->
<svg version="1.1" id="Capa_1" xmlns="http://www.w3.org/2000/svg" xmlns:xlink="http://www.w3.org/1999/xlink" x="0px" y="0px"
	 viewBox="0 0 174.73 27.9" style="enable-background:new 0 0 174.73 27.9;" xml:space="preserve">
<style type="text/css">
	.st0{fill:#F5EFE8;}
</style>
<g>
	<path class="st0" d="M21.47,21.65c0,0.74-0.23,0.97-0.97,1l-1.37,0.03c-0.77,0-1.03-0.23-1.03-0.94l0.06-4.26H6.58l0.03,4.26
		c0,0.72-0.26,0.97-1,0.97H4.26c-0.74,0-1-0.26-1-1V10.7c0-0.74,0.17-1.2,0.72-1.74l3.95-4.03c0.54-0.54,0.97-0.74,1.72-0.74h5.46
		c0.74,0,1.17,0.17,1.69,0.69l3.97,4.06c0.54,0.54,0.72,1,0.72,1.74V21.65z M14.58,7.33h-4.43l-3.57,3.52v3.75h11.58l0.03-3.72
		L14.58,7.33z"/>
	<path class="st0" d="M32.36,21.65c0,0.74-0.23,0.97-0.97,1l-1.34,0.03c-0.77,0-1.03-0.23-1.03-0.97V5.36c0-0.74,0.26-1,1-1h11.46
		c0.74,0,1.17,0.17,1.69,0.69l2.32,2.29c0.51,0.52,0.69,0.94,0.69,1.69v3.23c0,0.74-0.17,1.17-0.71,1.72l-2.26,2.26
		c-0.54,0.54-0.97,0.71-1.69,0.71l-9.15-0.03V21.65z M32.36,13.91h8.6l1.74-1.74V9.22l-1.77-1.77l-8.63-0.03L32.36,13.91z"/>
	<path class="st0" d="M52.6,5.36c0-0.74,0.26-1,1-1H66.9c0.74,0,1,0.26,1,1v1.17c0,0.74-0.26,1-0.97,1L55.92,7.47v4.32l9.95-0.03
		c0.71,0,0.97,0.26,0.97,1v1.29c0,0.74-0.26,1-0.97,1l-9.95-0.06v4.54l11.12-0.03c0.72,0,0.97,0.26,0.97,1v1.14c0,0.74-0.26,1-1,1
		H53.6c-0.74,0-1-0.26-1-1V5.36z"/>
	<path class="st0" d="M75.13,5.36c0-0.74,0.26-1,1-1h13.18c0.74,0,1.2,0.17,1.74,0.72l1.8,1.77c0.4,0.4,0.66,1,0.66,1.57l-0.03,1.66
		c0,0.71-0.2,1.14-0.74,1.69l-1.72,1.69l1.89,1.89c0.54,0.54,0.71,0.97,0.71,1.69l0.03,1.54c0,0.66-0.26,1.14-0.71,1.6l-1.83,1.8
		c-0.51,0.51-0.94,0.69-1.69,0.69H76.13c-0.74,0-1-0.26-1-1V5.36z M90.08,8.9l-1.54-1.6h-9.98v4.72h9.61l1.97-2.03L90.08,8.9z
		 M88.68,19.71l1.72-1.72l0.03-0.77l-2.26-2.26h-9.61v4.75H88.68z"/>
	<path class="st0" d="M118.73,21.65c0,0.74-0.23,0.97-0.97,1l-1.37,0.03c-0.77,0-1.03-0.23-1.03-0.94l0.06-4.26h-11.58l0.03,4.26
		c0,0.72-0.26,0.97-1,0.97h-1.34c-0.74,0-1-0.26-1-1V10.7c0-0.74,0.17-1.2,0.72-1.74l3.95-4.03c0.54-0.54,0.97-0.74,1.72-0.74h5.46
		c0.74,0,1.17,0.17,1.69,0.69l3.97,4.06c0.54,0.54,0.71,1,0.71,1.74V21.65z M111.84,7.33h-4.43l-3.57,3.52v3.75h11.58l0.03-3.72
		L111.84,7.33z"/>
	<path class="st0" d="M142.68,5.27c0-0.71,0.26-0.97,1-0.97h1.23c0.74,0,1,0.26,1,1v15.52c0,0.74-0.17,1.17-0.72,1.63l-1.06,0.92
		c-0.57,0.49-0.94,0.46-1.46-0.09L129.5,9.19v12.52c0,0.74-0.26,1-1,1h-1.23c-0.74,0-1-0.26-1-1V5.3c0-0.74,0.26-1,0.97-1l1.57,0.03
		c0.72,0,1.14,0.2,1.66,0.74l12.23,13.18L142.68,5.27z"/>
	<path class="st0" d="M167.95,5.27c-0.03-0.71,0.23-0.97,0.97-0.97h1.54c0.74,0,1,0.26,1,0.97l-0.03,1.77
		c0,0.72-0.17,1.14-0.71,1.63l-5.26,4.77l5.23,4.92c0.54,0.51,0.74,0.94,0.74,1.66l0.03,1.72c0,0.72-0.26,0.97-1,0.97h-1.52
		c-0.74,0-1-0.26-0.97-0.97l0.06-1.43l-5.55-5.23h-5.29l0.03,6.66c0,0.72-0.26,0.97-1,0.97h-1.37c-0.74,0-1-0.26-1-1V5.3
		c0-0.74,0.26-1,1-1h1.37c0.74,0,1,0.26,1,0.97l-0.03,6.63h5.32l5.49-5.06L167.95,5.27z"/>
</g>
</svg>
