<?xml version="1.0" encoding="utf-8"?>
<!-- Generator: Adobe Illustrator 24.1.1, SVG Export Plug-In . SVG Version: 6.00 Build 0)  -->
<svg version="1.1" id="Capa_1" xmlns="http://www.w3.org/2000/svg" xmlns:xlink="http://www.w3.org/1999/xlink" x="0px" y="0px"
	 viewBox="0 0 40 40" style="enable-background:new 0 0 40 40;" xml:space="preserve">
<style type="text/css">
	.st0{fill:#FFFFFF;}
</style>
<g>
	<path class="st0" d="M20,0C8.9,0,0,8.9,0,20s8.9,20,20,20s20-9,20-20S31,0,20,0 M29.5,13c-0.1,0.8-0.5,3.6-1,6.7l-1.4,9.1
		c0,0-0.1,1.3-1.1,1.6s-2.6-0.8-2.9-1c-0.2-0.2-4.3-2.8-5.8-4c-0.4-0.4-0.9-1,0.1-1.9c2.1-1.9,4.6-4.3,6.1-5.8
		c0.7-0.7,1.4-2.3-1.5-0.4l-8.1,5.5c0,0-0.9,0.6-2.7,0.1c-1.7-0.5-3.8-1.2-3.8-1.2s-1.4-0.9,1-1.8l0,0l13.5-5.6
		c1.3-0.6,5.8-2.4,5.8-2.4S29.7,11,29.5,13"/>
</g>
</svg>
