<?xml version="1.0" encoding="utf-8"?>
<!-- Generator: Adobe Illustrator 24.1.1, SVG Export Plug-In . SVG Version: 6.00 Build 0)  -->
<svg version="1.1" id="Capa_1" xmlns="http://www.w3.org/2000/svg" xmlns:xlink="http://www.w3.org/1999/xlink" x="0px" y="0px"
	 viewBox="0 0 40 40" style="enable-background:new 0 0 40 40;" xml:space="preserve">
<style type="text/css">
	.st0{fill:#ABABAB;}
</style>
<g>
	<path class="st0" d="M20,0C8.95,0,0,8.95,0,20s8.95,20,20,20s20-8.95,20-20S31.05,0,20,0 M29.54,13.01
		c-0.06,0.81-0.52,3.64-0.98,6.71l-1.44,9.07c0,0-0.12,1.33-1.1,1.56c-0.98,0.23-2.6-0.81-2.89-1.04c-0.23-0.17-4.34-2.77-5.84-4.05
		c-0.4-0.35-0.87-1.04,0.06-1.85c2.08-1.91,4.57-4.28,6.07-5.78c0.69-0.69,1.39-2.31-1.5-0.35l-8.15,5.49c0,0-0.92,0.58-2.66,0.06
		c-1.73-0.52-3.76-1.21-3.76-1.21s-1.39-0.87,0.98-1.79l0,0l13.47-5.55c1.33-0.58,5.84-2.43,5.84-2.43S29.71,11.04,29.54,13.01"/>
</g>
</svg>
