<?xml version="1.0" encoding="utf-8"?>
<!-- Generator: Adobe Illustrator 24.1.1, SVG Export Plug-In . SVG Version: 6.00 Build 0)  -->
<svg version="1.1" id="Capa_1" xmlns="http://www.w3.org/2000/svg" xmlns:xlink="http://www.w3.org/1999/xlink" x="0px" y="0px"
	 viewBox="0 0 40 32.51" style="enable-background:new 0 0 40 32.51;" xml:space="preserve">
<g>
	<path d="M40,3.85c-1.47,0.65-3.05,1.09-4.71,1.29c1.69-1.02,3-2.62,3.61-4.54c-1.59,0.94-3.34,1.62-5.21,1.99
		C32.19,1,30.05,0,27.69,0c-4.53,0-8.21,3.67-8.21,8.21c0,0.64,0.07,1.27,0.21,1.87C12.88,9.73,6.83,6.47,2.78,1.5
		C2.08,2.71,1.67,4.12,1.67,5.63c0,2.85,1.45,5.36,3.65,6.83c-1.35-0.04-2.61-0.41-3.72-1.03c0,0.03,0,0.07,0,0.1
		c0,3.98,2.83,7.29,6.58,8.05c-0.69,0.19-1.41,0.29-2.16,0.29c-0.53,0-1.04-0.05-1.54-0.15c1.04,3.26,4.07,5.63,7.67,5.7
		c-2.81,2.2-6.35,3.51-10.19,3.51c-0.66,0-1.32-0.04-1.96-0.11c3.63,2.33,7.95,3.69,12.58,3.69c15.09,0,23.35-12.5,23.35-23.35
		c0-0.36-0.01-0.71-0.02-1.06C37.51,6.94,38.9,5.49,40,3.85"/>
</g>
</svg>
